<svg version="1.1" id="Capa_1" xmlns="http://www.w3.org/2000/svg" xmlns:xlink="http://www.w3.org/1999/xlink" x="0px" y="0px" viewBox="0 0 511.699 511.699" style="enable-background:new 0 0 511.699 511.699;" xml:space="preserve" width="300" height="300" xmlns:svgjs="http://svgjs.dev/svgjs"><g width="100%" height="100%" transform="matrix(1,0,0,1,0,0)"><g>
	<g>
		<g>
			<g>
				<g>
					<path style="stroke-linecap: round; stroke-linejoin: round; stroke-miterlimit: 10;" d="&#10;&#9;&#9;&#9;&#9;&#9;&#9;M106.348,103.789v147.432c94.313,45.562,204.69,45.562,299.003,0V103.789" fill="none" fill-opacity="1" stroke="#6440fb" stroke-opacity="1" data-original-stroke-color="#000000ff" stroke-width="30" data-original-stroke-width="30"/>
					
						<polygon style="stroke-linecap: round; stroke-linejoin: round; stroke-miterlimit: 10;" points="&#10;&#9;&#9;&#9;&#9;&#9;&#9;255.849,15 496.663,79.103 255.849,144.206 15.036,79.103 &#9;&#9;&#9;&#9;&#9;" fill="none" fill-opacity="1" stroke="#6440fb" stroke-opacity="1" data-original-stroke-color="#000000ff" stroke-width="30" data-original-stroke-width="30"/>
				</g>
				<g>
					<g>
						
							<line style="stroke-linecap: round; stroke-linejoin: round; stroke-miterlimit: 10;" x1="44.849" y1="89.639" x2="44.849" y2="158.836" fill="none" fill-opacity="1" stroke="#6440fb" stroke-opacity="1" data-original-stroke-color="#000000ff" stroke-width="30" data-original-stroke-width="30"/>
					</g>
				</g>
			</g>
			
				<line style="stroke-linecap: round; stroke-linejoin: round; stroke-miterlimit: 10;" x1="44.849" y1="158.836" x2="15.374" y2="190.311" fill="none" fill-opacity="1" stroke="#6440fb" stroke-opacity="1" data-original-stroke-color="#000000ff" stroke-width="30" data-original-stroke-width="30"/>
			
				<line style="stroke-linecap: round; stroke-linejoin: round; stroke-miterlimit: 10;" x1="44.849" y1="158.836" x2="44.849" y2="210.35" fill="none" fill-opacity="1" stroke="#6440fb" stroke-opacity="1" data-original-stroke-color="#000000ff" stroke-width="30" data-original-stroke-width="30"/>
		</g>
	</g>
	<g>
		<path style="stroke-linecap: round; stroke-linejoin: round; stroke-miterlimit: 10;" d="&#10;&#9;&#9;&#9;M151.208,464.915h-76c-33.137,0-60-26.863-60-60v0c0-33.137,26.863-60,60-60H496.53" fill="none" fill-opacity="1" stroke="#6440fb" stroke-opacity="1" data-original-stroke-color="#000000ff" stroke-width="30" data-original-stroke-width="30"/>
		
			<line style="stroke-linecap: round; stroke-linejoin: round; stroke-miterlimit: 10;" x1="496.53" y1="464.915" x2="232.567" y2="464.915" fill="none" fill-opacity="1" stroke="#6440fb" stroke-opacity="1" data-original-stroke-color="#000000ff" stroke-width="30" data-original-stroke-width="30"/>
		
			<line style="stroke-linecap: round; stroke-linejoin: round; stroke-miterlimit: 10;" x1="76.208" y1="404.915" x2="472.19" y2="404.915" fill="none" fill-opacity="1" stroke="#6440fb" stroke-opacity="1" data-original-stroke-color="#000000ff" stroke-width="30" data-original-stroke-width="30"/>
		
			<line style="stroke-linecap: round; stroke-linejoin: round; stroke-miterlimit: 10;" x1="472.19" y1="344.915" x2="472.19" y2="463.807" fill="none" fill-opacity="1" stroke="#6440fb" stroke-opacity="1" data-original-stroke-color="#000000ff" stroke-width="30" data-original-stroke-width="30"/>
		
			<polyline style="stroke-linecap: round; stroke-linejoin: round; stroke-miterlimit: 10;" points="&#10;&#9;&#9;&#9;232.567,404.915 232.567,496.699 191.887,466.699 151.208,496.699 151.208,404.915 &#9;&#9;" fill="none" fill-opacity="1" stroke="#6440fb" stroke-opacity="1" data-original-stroke-color="#000000ff" stroke-width="30" data-original-stroke-width="30"/>
	</g>
</g><g>
</g><g>
</g><g>
</g><g>
</g><g>
</g><g>
</g><g>
</g><g>
</g><g>
</g><g>
</g><g>
</g><g>
</g><g>
</g><g>
</g><g>
</g></g></svg>